<mxfile host="app.diagrams.net" modified="2021-07-12T06:19:23.246Z" agent="5.0 (Macintosh; Intel Mac OS X 10_15_7) AppleWebKit/537.36 (KHTML, like Gecko) Chrome/91.0.4472.114 Safari/537.36" etag="KeuXDYbIrUMTi68gdDi4" version="14.8.5" type="github">
  <diagram id="ZD7InYH2soBRNX1pvBe3" name="Page-1">
    <mxGraphModel dx="2125" dy="834" grid="1" gridSize="10" guides="1" tooltips="1" connect="1" arrows="1" fold="1" page="1" pageScale="1" pageWidth="827" pageHeight="1169" math="0" shadow="0">
      <root>
        <mxCell id="0" />
        <mxCell id="1" parent="0" />
        <mxCell id="D16KxUyxkKYgGgTmL76M-1" value="开始" style="rounded=1;whiteSpace=wrap;html=1;" vertex="1" parent="1">
          <mxGeometry x="130" y="70" width="90" height="50" as="geometry" />
        </mxCell>
        <mxCell id="D16KxUyxkKYgGgTmL76M-2" value="&lt;article class=&quot;4ever-article&quot;&gt;&lt;p style=&quot;text-align: left ; margin-left: 0px&quot;&gt;传参generateContractInput&lt;/p&gt;&lt;/article&gt;" style="shape=parallelogram;perimeter=parallelogramPerimeter;whiteSpace=wrap;html=1;fixedSize=1;" vertex="1" parent="1">
          <mxGeometry x="75" y="140" width="200" height="60" as="geometry" />
        </mxCell>
        <mxCell id="D16KxUyxkKYgGgTmL76M-3" value="&lt;article class=&quot;4ever-article&quot;&gt;&lt;p style=&quot;text-align: left ; text-indent: 0 ; margin-left: 0&quot;&gt;&lt;span&gt;new generateContractResult&lt;/span&gt;&lt;/p&gt;&lt;/article&gt;" style="html=1;" vertex="1" parent="1">
          <mxGeometry x="70" y="230" width="210" height="50" as="geometry" />
        </mxCell>
        <mxCell id="D16KxUyxkKYgGgTmL76M-4" value="&lt;article class=&quot;4ever-article&quot;&gt;&lt;p style=&quot;text-align: left ; text-indent: 0 ; margin-left: 0&quot;&gt;&lt;span&gt;contractConfigDO、contractName、isSchema ---&amp;gt; CdlConfigDO&lt;/span&gt;&lt;/p&gt;&lt;/article&gt;" style="rounded=0;whiteSpace=wrap;html=1;" vertex="1" parent="1">
          <mxGeometry x="-10" y="400" width="370" height="60" as="geometry" />
        </mxCell>
        <mxCell id="D16KxUyxkKYgGgTmL76M-5" value="&lt;pre style=&quot;font-family: &amp;#34;jetbrains mono&amp;#34; ; font-size: 9.8pt&quot;&gt;&lt;span style=&quot;background-color: rgb(255 , 255 , 255)&quot;&gt;isSchema = isSchema(input.getApplicationDO())&lt;/span&gt;&lt;/pre&gt;" style="rounded=0;whiteSpace=wrap;html=1;" vertex="1" parent="1">
          <mxGeometry x="20" y="310" width="330" height="60" as="geometry" />
        </mxCell>
      </root>
    </mxGraphModel>
  </diagram>
</mxfile>
